<?xml version="1.0" encoding="UTF-8"?>
<svg id="Layer_1" xmlns="http://www.w3.org/2000/svg" version="1.1" viewBox="0 0 1362 1366">
  <!-- Generator: Adobe Illustrator 29.1.0, SVG Export Plug-In . SVG Version: 2.1.0 Build 142)  -->
  <defs>
    <style>
      .st0 {
        fill: #f2c373;
      }

      .st1 {
        fill: #fbebcb;
      }
    </style>
  </defs>
  <rect class="st0" x="295" y="0" width="768" height="1366"/>
  <path class="st1" d="M416.43,132.73c12.76-13.2,70.97-70.67,139.29-55.06,16.45,3.76,41.9,9.57,53.02,32.83,18.65,39-23.63,83.93-4.49,123.89,11.57,24.16,38.87,32.48,55.72,32.83,21.48.44,29.83-12,68.3-37.06,31.64-20.61,61.06-39.77,98.85-47.65,37.17-7.74,66.38-1.23,75.49,1.06,11.93,3,42.22,10.98,70.1,36,54.67,49.08,39.96,109.77,79.98,128.13,33.25,15.25,50.79-23.25,92.56-7.41,30.39,11.52,57.86,45.83,62.91,85.77,4.63,36.71-11.15,66.48-17.07,77.3-43.96,80.32-161.16,113.71-249.83,73.06-48.13-22.06-44.08-45.88-79.08-50.83-85.89-12.15-139.79,127.07-200.4,103.77-32.19-12.37-25.02-54.71-62.91-72.01-39.61-18.08-67.02,19.28-144.69,45.53-50.33,17.01-132.67,44.85-179.73-2.12-32.58-32.51-47.03-99.64-26.96-135.54,24.57-43.94,88.63-19.22,106.04-62.48,10.14-25.18.67-63.99-18.87-79.42-33.12-26.15-77.93,28.48-105.14,5.29-25.19-21.46-24.06-100.03,7.19-131.3,26.78-26.8,58.86-2.04,119.52-26.47,27.29-10.99,47.56-26.77,60.21-38.12Z"/>
  <path class="st1" d="M978.81,1267.69c-10.35,14.39-58.03,77.53-127.86,75.44-5.54-.17-41.44.58-57.64-20.62-16.54-21.65,2.51-46.2-13.06-61.65-14.94-14.82-39,1.3-81.76-3.7-57.25-6.69-63.85-41.41-95.32-36.24-50.17,8.24-52.07,99.52-105.13,107.78-30.06,4.68-57.9-20.19-60.57-22.64-29.06-26.64-14.62-56.01-38.02-69.63-23.82-13.86-44.64,13.14-97.87,7.71-12.15-1.24-57.75-5.89-74.45-36.4-10.55-19.27-4.94-40.4-2.26-50.51,11.26-42.46,43.53-46.35,46.84-74.38,4.46-37.78-51.81-50.84-47.77-87.26,3.28-29.59,44.12-54.45,77.58-59.79,39.25-6.27,57.86,25.55,78.43,14.44,25.82-13.94,6.59-64.54,36.06-83.23,17.55-11.13,45.33-6.48,62,8,18.88,16.4,18.97,41.5,19,49,.14,36.15-24.88,60.51-22,63,6.25,5.41,91.84-137.37,179.56-130.97,69.7,5.09,100.49,101.07,144.67,88.77,30.86-8.59,18.44-58.71,63.98-101.64,40.67-38.34,121.66-65.77,177.19-30.22,37.48,23.99,62.9,82.99,49.14,119.51-17.99,47.77-94.42,49.32-93.91,76.29.42,21.93,49.49,37.42,70.59,44.07,71.98,22.71,112.32,3.37,126.39,24.66,14.86,22.48-11.25,72.55-47.77,98.81-36.45,26.21-61.77,14.92-113.18,45.67-25.02,14.96-42.33,33.07-52.88,45.74Z"/>
  <path class="st1" d="M1313,1172"/>
  <path class="st1" d="M116,741"/>
</svg>